<svg width="650" height="265" viewBox="0 0 650 265" fill="none" xmlns="http://www.w3.org/2000/svg">
<rect x="256.5" y="27.5" width="265" height="185" rx="3.5" fill="white"/>
<rect x="256.5" y="27.5" width="265" height="185" rx="3.5" stroke="#66BFBF" stroke-width="3" style="mix-blend-mode:darken"/>
<rect x="270.5" y="44.5" width="237" height="137" rx="3.5" fill="white"/>
<rect x="270.5" y="44.5" width="237" height="137" rx="3.5" stroke="#66BFBF" stroke-width="3" stroke-linejoin="round" style="mix-blend-mode:darken"/>
<circle cx="387" cy="193" r="5" fill="white"/>
<circle cx="387" cy="193" r="5" stroke="#66BFBF" stroke-width="2" style="mix-blend-mode:darken"/>
<path d="M374.715 235.458L380.627 214.458C380.869 213.596 381.656 213 382.552 213H388.815H395.099C395.985 213 396.765 213.583 397.017 214.432L403.239 235.432C403.619 236.714 402.658 238 401.321 238H388.815H376.641C375.315 238 374.356 236.734 374.715 235.458Z" fill="white"/>
<path d="M374.715 235.458L380.627 214.458C380.869 213.596 381.656 213 382.552 213H388.815H395.099C395.985 213 396.765 213.583 397.017 214.432L403.239 235.432C403.619 236.714 402.658 238 401.321 238H388.815H376.641C375.315 238 374.356 236.734 374.715 235.458Z" stroke="#66BFBF" stroke-width="3" style="mix-blend-mode:darken"/>
<path d="M350.632 246.5C351.34 242.521 354.817 239.5 359 239.5H419C423.183 239.5 426.66 242.521 427.368 246.5H350.632Z" fill="white"/>
<path d="M350.632 246.5C351.34 242.521 354.817 239.5 359 239.5H419C423.183 239.5 426.66 242.521 427.368 246.5H350.632Z" stroke="#66BFBF" stroke-width="3" style="mix-blend-mode:darken"/>
<rect x="390.5" y="49.5" width="107" height="120" rx="6.5" fill="white"/>
<rect x="390.5" y="49.5" width="107" height="120" rx="6.5" stroke="#66BFBF" stroke-width="3" style="mix-blend-mode:darken"/>
<path d="M390 61H497" stroke="#66BFBF" stroke-width="3" style="mix-blend-mode:darken"/>
<circle cx="404" cy="55" r="2" fill="#66BFBF" style="mix-blend-mode:darken"/>
<circle cx="399" cy="55" r="2" fill="#66BFBF" style="mix-blend-mode:darken"/>
<circle cx="409" cy="55" r="2" fill="#66BFBF" style="mix-blend-mode:darken"/>
<line x1="401" y1="76" x2="410" y2="76" stroke="#66BFBF" stroke-width="2" style="mix-blend-mode:darken"/>
<line x1="472" y1="76" x2="476" y2="76" stroke="#66BFBF" stroke-width="2" style="mix-blend-mode:darken"/>
<line x1="432" y1="76" x2="447" y2="76" stroke="#66BFBF" stroke-width="2" style="mix-blend-mode:darken"/>
<line x1="427" y1="94.9583" x2="442" y2="94.9583" stroke="#66BFBF" stroke-width="2" style="mix-blend-mode:darken"/>
<line x1="425" y1="76" x2="430" y2="76" stroke="#66BFBF" stroke-width="2" style="mix-blend-mode:darken"/>
<line x1="412" y1="76" x2="423" y2="76" stroke="#66BFBF" stroke-width="2" style="mix-blend-mode:darken"/>
<line x1="419" y1="85.4792" x2="428" y2="85.4792" stroke="#66BFBF" stroke-width="2" style="mix-blend-mode:darken"/>
<line x1="443" y1="94.9583" x2="454" y2="94.9583" stroke="#66BFBF" stroke-width="2" style="mix-blend-mode:darken"/>
<line x1="449" y1="76" x2="458" y2="76" stroke="#66BFBF" stroke-width="2" style="mix-blend-mode:darken"/>
<line x1="474" y1="85.4792" x2="485" y2="85.4792" stroke="#66BFBF" stroke-width="2" style="mix-blend-mode:darken"/>
<line x1="413" y1="85.4792" x2="417" y2="85.4792" stroke="#66BFBF" stroke-width="2" style="mix-blend-mode:darken"/>
<line x1="401" y1="85.4792" x2="411" y2="85.4792" stroke="#66BFBF" stroke-width="2" style="mix-blend-mode:darken"/>
<line x1="430" y1="85.4792" x2="439" y2="85.4792" stroke="#66BFBF" stroke-width="2" style="mix-blend-mode:darken"/>
<line x1="441" y1="85.4792" x2="452" y2="85.4792" stroke="#66BFBF" stroke-width="2" style="mix-blend-mode:darken"/>
<line x1="467" y1="76" x2="470" y2="76" stroke="#66BFBF" stroke-width="2" style="mix-blend-mode:darken"/>
<line x1="460" y1="76" x2="465" y2="76" stroke="#66BFBF" stroke-width="2" style="mix-blend-mode:darken"/>
<line x1="471" y1="94.9583" x2="482" y2="94.9583" stroke="#66BFBF" stroke-width="2" style="mix-blend-mode:darken"/>
<line x1="414" y1="104.438" x2="429" y2="104.438" stroke="#66BFBF" stroke-width="2" style="mix-blend-mode:darken"/>
<line x1="401" y1="104.438" x2="412" y2="104.438" stroke="#66BFBF" stroke-width="2" style="mix-blend-mode:darken"/>
<line x1="431" y1="104.438" x2="442" y2="104.438" stroke="#66BFBF" stroke-width="2" style="mix-blend-mode:darken"/>
<line x1="444" y1="104.438" x2="447" y2="104.438" stroke="#66BFBF" stroke-width="2" style="mix-blend-mode:darken"/>
<line x1="449" y1="104.438" x2="460" y2="104.438" stroke="#66BFBF" stroke-width="2" style="mix-blend-mode:darken"/>
<line x1="454" y1="85.4792" x2="472" y2="85.4792" stroke="#66BFBF" stroke-width="2" style="mix-blend-mode:darken"/>
<line x1="438" y1="113.917" x2="453" y2="113.917" stroke="#66BFBF" stroke-width="2" style="mix-blend-mode:darken"/>
<line x1="421" y1="113.917" x2="430" y2="113.917" stroke="#66BFBF" stroke-width="2" style="mix-blend-mode:darken"/>
<line x1="432" y1="113.917" x2="436" y2="113.917" stroke="#66BFBF" stroke-width="2" style="mix-blend-mode:darken"/>
<line x1="455" y1="113.917" x2="460" y2="113.917" stroke="#66BFBF" stroke-width="2" style="mix-blend-mode:darken"/>
<line x1="462" y1="113.917" x2="465" y2="113.917" stroke="#66BFBF" stroke-width="2" style="mix-blend-mode:darken"/>
<line x1="431" y1="123.396" x2="434" y2="123.396" stroke="#66BFBF" stroke-width="2" style="mix-blend-mode:darken"/>
<line x1="436" y1="123.396" x2="447" y2="123.396" stroke="#66BFBF" stroke-width="2" style="mix-blend-mode:darken"/>
<line x1="454" y1="123.396" x2="457" y2="123.396" stroke="#66BFBF" stroke-width="2" style="mix-blend-mode:darken"/>
<line x1="418" y1="123.396" x2="429" y2="123.396" stroke="#66BFBF" stroke-width="2" style="mix-blend-mode:darken"/>
<line x1="401" y1="123.396" x2="416" y2="123.396" stroke="#66BFBF" stroke-width="2" style="mix-blend-mode:darken"/>
<line x1="449" y1="123.396" x2="452" y2="123.396" stroke="#66BFBF" stroke-width="2" style="mix-blend-mode:darken"/>
<line x1="401" y1="113.917" x2="419" y2="113.917" stroke="#66BFBF" stroke-width="2" style="mix-blend-mode:darken"/>
<line x1="401" y1="94.9583" x2="426" y2="94.9583" stroke="#66BFBF" stroke-width="2" style="mix-blend-mode:darken"/>
<line x1="466" y1="123.396" x2="469" y2="123.396" stroke="#66BFBF" stroke-width="2" style="mix-blend-mode:darken"/>
<line x1="459" y1="123.396" x2="464" y2="123.396" stroke="#66BFBF" stroke-width="2" style="mix-blend-mode:darken"/>
<line x1="401" y1="141" x2="416" y2="141" stroke="#66BFBF" stroke-width="2" style="mix-blend-mode:darken"/>
<line x1="433" y1="131.521" x2="444" y2="131.521" stroke="#66BFBF" stroke-width="2" style="mix-blend-mode:darken"/>
<line x1="418" y1="141" x2="429" y2="141" stroke="#66BFBF" stroke-width="2" style="mix-blend-mode:darken"/>
<line x1="446" y1="131.521" x2="455" y2="131.521" stroke="#66BFBF" stroke-width="2" style="mix-blend-mode:darken"/>
<line x1="431" y1="141" x2="436" y2="141" stroke="#66BFBF" stroke-width="2" style="mix-blend-mode:darken"/>
<line x1="438" y1="141" x2="441" y2="141" stroke="#66BFBF" stroke-width="2" style="mix-blend-mode:darken"/>
<line x1="457" y1="131.521" x2="472" y2="131.521" stroke="#66BFBF" stroke-width="2" style="mix-blend-mode:darken"/>
<line x1="428" y1="131.521" x2="431" y2="131.521" stroke="#66BFBF" stroke-width="2" style="mix-blend-mode:darken"/>
<line x1="401" y1="131.521" x2="426" y2="131.521" stroke="#66BFBF" stroke-width="2" style="mix-blend-mode:darken"/>
<line x1="457" y1="94.9583" x2="468" y2="94.9583" stroke="#66BFBF" stroke-width="2" style="mix-blend-mode:darken"/>
<rect x="281.5" y="50.5" width="102" height="111" rx="6.5" fill="white"/>
<rect x="281.5" y="50.5" width="102" height="111" rx="6.5" stroke="#66BFBF" stroke-width="3" style="mix-blend-mode:darken"/>
<line x1="282" y1="63.5" x2="383" y2="63.5" stroke="#66BFBF" stroke-width="3" style="mix-blend-mode:darken"/>
<circle cx="290" cy="58" r="2" fill="#66BFBF" style="mix-blend-mode:darken"/>
<circle cx="295" cy="58" r="2" fill="#66BFBF" style="mix-blend-mode:darken"/>
<circle cx="300" cy="58" r="2" fill="#66BFBF" style="mix-blend-mode:darken"/>
<rect x="345" y="70" width="23" height="6" rx="2" fill="white"/>
<rect x="345" y="70" width="23" height="6" rx="2" stroke="#66BFBF" stroke-width="2" style="mix-blend-mode:darken"/>
<rect x="345" y="86" width="23" height="6" rx="2" fill="white"/>
<rect x="345" y="86" width="23" height="6" rx="2" stroke="#66BFBF" stroke-width="2" style="mix-blend-mode:darken"/>
<rect x="345" y="78" width="23" height="6" rx="2" fill="white"/>
<rect x="345" y="78" width="23" height="6" rx="2" stroke="#66BFBF" stroke-width="2" style="mix-blend-mode:darken"/>
<circle cx="356.5" cy="119.5" r="6" fill="white"/>
<circle cx="356.5" cy="119.5" r="6" stroke="#66BFBF" stroke-width="3" style="mix-blend-mode:darken"/>
<path d="M361 126L362 125L364 126L365.5 127L366 128L367 130V132V134H346V132V130L347 128L347.5 127L349 126L351 125L352 126L353 127L355 128H356.5H358L360 127L361 126Z" stroke="#66BFBF" stroke-width="3" style="mix-blend-mode:darken"/>
<line x1="356.5" y1="94" x2="356.5" y2="111" stroke="#66BFBF" stroke-width="3" style="mix-blend-mode:darken"/>
<rect x="304" y="69" width="20" height="24" rx="2" stroke="#66BFBF" stroke-width="2"/>
<rect x="306.5" y="71.5" width="15" height="4" rx="0.5" fill="white" stroke="#66BFBF"/>
<rect x="306.5" y="78.5" width="15" height="4" rx="0.5" fill="white" stroke="#66BFBF"/>
<circle cx="308.5" cy="73.5" r="1.5" fill="#66BFBF" style="mix-blend-mode:darken"/>
<circle cx="308.5" cy="80.5" r="1.5" fill="#66BFBF" style="mix-blend-mode:darken"/>
<circle cx="314" cy="86" r="2" fill="#66BFBF"/>
<circle cx="314" cy="90" r="1" fill="#66BFBF"/>
<line x1="326" y1="80.5" x2="343" y2="80.5" stroke="#66BFBF" stroke-width="3" style="mix-blend-mode:darken"/>
<rect x="119.5" y="97.5" width="197" height="137" rx="6.5" fill="white"/>
<rect x="119.5" y="97.5" width="197" height="137" rx="6.5" stroke="#66BFBF" stroke-width="3" style="mix-blend-mode:darken"/>
<rect x="126.5" y="109.5" width="182" height="117" rx="2.5" fill="white"/>
<rect x="126.5" y="109.5" width="182" height="117" rx="2.5" stroke="#66BFBF" stroke-width="3" style="mix-blend-mode:darken"/>
<path d="M104.5 234.5H331.5V236C331.5 241.799 326.799 246.5 321 246.5H115C109.201 246.5 104.5 241.799 104.5 236V234.5Z" fill="white"/>
<path d="M104.5 234.5H331.5V236C331.5 241.799 326.799 246.5 321 246.5H115C109.201 246.5 104.5 241.799 104.5 236V234.5Z" stroke="#66BFBF" stroke-width="3" style="mix-blend-mode:darken"/>
<path d="M238.9 235C238.437 237.282 236.419 239 234 239H202C199.581 239 197.563 237.282 197.1 235H238.9Z" fill="white"/>
<path d="M238.9 235C238.437 237.282 236.419 239 234 239H202C199.581 239 197.563 237.282 197.1 235H238.9Z" stroke="#66BFBF" stroke-width="2" style="mix-blend-mode:darken"/>
<circle cx="217.5" cy="103.5" r="2.5" fill="#66BFBF" style="mix-blend-mode:darken"/>
<rect x="212.5" y="120.5" width="84" height="94" rx="6.5" fill="white"/>
<rect x="212.5" y="120.5" width="84" height="94" rx="6.5" stroke="#66BFBF" stroke-width="3" style="mix-blend-mode:darken"/>
<path d="M211.791 129.252H296.418" stroke="#66BFBF" stroke-width="3" style="mix-blend-mode:darken"/>
<ellipse cx="222.864" cy="124.52" rx="1.58182" ry="1.57724" fill="#66BFBF" style="mix-blend-mode:darken"/>
<ellipse cx="218.909" cy="124.52" rx="1.58182" ry="1.57724" fill="#66BFBF" style="mix-blend-mode:darken"/>
<ellipse cx="226.818" cy="124.52" rx="1.58182" ry="1.57724" fill="#66BFBF" style="mix-blend-mode:darken"/>
<line x1="217" y1="138" x2="226" y2="138" stroke="#66BFBF" stroke-width="2" style="mix-blend-mode:darken"/>
<line x1="248" y1="138" x2="263" y2="138" stroke="#66BFBF" stroke-width="2" style="mix-blend-mode:darken"/>
<line x1="243" y1="156.958" x2="258" y2="156.958" stroke="#66BFBF" stroke-width="2" style="mix-blend-mode:darken"/>
<line x1="241" y1="138" x2="246" y2="138" stroke="#66BFBF" stroke-width="2" style="mix-blend-mode:darken"/>
<line x1="228" y1="138" x2="239" y2="138" stroke="#66BFBF" stroke-width="2" style="mix-blend-mode:darken"/>
<line x1="235" y1="147.479" x2="244" y2="147.479" stroke="#66BFBF" stroke-width="2" style="mix-blend-mode:darken"/>
<line x1="265" y1="138" x2="274" y2="138" stroke="#66BFBF" stroke-width="2" style="mix-blend-mode:darken"/>
<line x1="229" y1="147.479" x2="233" y2="147.479" stroke="#66BFBF" stroke-width="2" style="mix-blend-mode:darken"/>
<line x1="217" y1="147.479" x2="227" y2="147.479" stroke="#66BFBF" stroke-width="2" style="mix-blend-mode:darken"/>
<line x1="246" y1="147.479" x2="255" y2="147.479" stroke="#66BFBF" stroke-width="2" style="mix-blend-mode:darken"/>
<line x1="257" y1="147.479" x2="268" y2="147.479" stroke="#66BFBF" stroke-width="2" style="mix-blend-mode:darken"/>
<line x1="230" y1="166.438" x2="245" y2="166.438" stroke="#66BFBF" stroke-width="2" style="mix-blend-mode:darken"/>
<line x1="217" y1="166.438" x2="228" y2="166.438" stroke="#66BFBF" stroke-width="2" style="mix-blend-mode:darken"/>
<line x1="247" y1="166.438" x2="258" y2="166.438" stroke="#66BFBF" stroke-width="2" style="mix-blend-mode:darken"/>
<line x1="260" y1="166.438" x2="263" y2="166.438" stroke="#66BFBF" stroke-width="2" style="mix-blend-mode:darken"/>
<line x1="265" y1="166.438" x2="276" y2="166.438" stroke="#66BFBF" stroke-width="2" style="mix-blend-mode:darken"/>
<line x1="270" y1="147.479" x2="288" y2="147.479" stroke="#66BFBF" stroke-width="2" style="mix-blend-mode:darken"/>
<line x1="254" y1="175.917" x2="269" y2="175.917" stroke="#66BFBF" stroke-width="2" style="mix-blend-mode:darken"/>
<line x1="237" y1="175.917" x2="246" y2="175.917" stroke="#66BFBF" stroke-width="2" style="mix-blend-mode:darken"/>
<line x1="248" y1="175.917" x2="252" y2="175.917" stroke="#66BFBF" stroke-width="2" style="mix-blend-mode:darken"/>
<line x1="271" y1="175.917" x2="276" y2="175.917" stroke="#66BFBF" stroke-width="2" style="mix-blend-mode:darken"/>
<line x1="247" y1="185.396" x2="250" y2="185.396" stroke="#66BFBF" stroke-width="2" style="mix-blend-mode:darken"/>
<line x1="234" y1="185.396" x2="245" y2="185.396" stroke="#66BFBF" stroke-width="2" style="mix-blend-mode:darken"/>
<line x1="217" y1="185.396" x2="232" y2="185.396" stroke="#66BFBF" stroke-width="2" style="mix-blend-mode:darken"/>
<line x1="217" y1="175.917" x2="235" y2="175.917" stroke="#66BFBF" stroke-width="2" style="mix-blend-mode:darken"/>
<line x1="217" y1="156.958" x2="242" y2="156.958" stroke="#66BFBF" stroke-width="2" style="mix-blend-mode:darken"/>
<line x1="217" y1="203" x2="232" y2="203" stroke="#66BFBF" stroke-width="2" style="mix-blend-mode:darken"/>
<line x1="249" y1="193.521" x2="260" y2="193.521" stroke="#66BFBF" stroke-width="2" style="mix-blend-mode:darken"/>
<line x1="234" y1="203" x2="245" y2="203" stroke="#66BFBF" stroke-width="2" style="mix-blend-mode:darken"/>
<line x1="262" y1="193.521" x2="271" y2="193.521" stroke="#66BFBF" stroke-width="2" style="mix-blend-mode:darken"/>
<line x1="247" y1="203" x2="252" y2="203" stroke="#66BFBF" stroke-width="2" style="mix-blend-mode:darken"/>
<line x1="254" y1="203" x2="257" y2="203" stroke="#66BFBF" stroke-width="2" style="mix-blend-mode:darken"/>
<line x1="244" y1="193.521" x2="247" y2="193.521" stroke="#66BFBF" stroke-width="2" style="mix-blend-mode:darken"/>
<line x1="217" y1="193.521" x2="242" y2="193.521" stroke="#66BFBF" stroke-width="2" style="mix-blend-mode:darken"/>
<rect x="141.5" y="120.5" width="47" height="97" rx="6.5" fill="white"/>
<rect x="141.5" y="120.5" width="47" height="97" rx="6.5" stroke="#66BFBF" stroke-width="3" style="mix-blend-mode:darken"/>
<line x1="141" y1="130.5" x2="189" y2="130.5" stroke="#66BFBF" stroke-width="3" style="mix-blend-mode:darken"/>
<path d="M157.5 126.5H172.5" stroke="#66BFBF" style="mix-blend-mode:darken"/>
<circle cx="165" cy="124" r="1" fill="#66BFBF" style="mix-blend-mode:darken"/>
<circle cx="154.5" cy="126.5" r="1.5" fill="#66BFBF" style="mix-blend-mode:darken"/>
<circle cx="165" cy="210" r="3.5" fill="white"/>
<circle cx="165" cy="210" r="3.5" stroke="#66BFBF" style="mix-blend-mode:darken"/>
<line x1="141" y1="202.5" x2="189" y2="202.5" stroke="#66BFBF" stroke-width="3" style="mix-blend-mode:darken"/>
<circle cx="153.48" cy="154.485" r="5.98014" fill="white"/>
<circle cx="153.48" cy="154.485" r="5.98014" stroke="#66BFBF" stroke-width="3" style="mix-blend-mode:darken"/>
<path d="M153.48 161.964C153.48 188.679 175.208 188.679 175.208 161.964" stroke="#66BFBF" stroke-width="3" style="mix-blend-mode:darken"/>
<path d="M171.646 147.004C165 146.809 167.82 154.49 175.208 161.964" stroke="#66BFBF" stroke-width="3" style="mix-blend-mode:darken"/>
<path d="M178.77 147.007C185.417 146.813 182.596 154.493 175.208 161.968" stroke="#66BFBF" stroke-width="3" style="mix-blend-mode:darken"/>
<path d="M541 248L536 200H564L560 248H541Z" fill="white"/>
<path d="M541 248L536 200H564L560 248H541Z" stroke="#66BFBF" stroke-width="3" style="mix-blend-mode:darken"/>
<rect x="545.052" y="226.671" width="8" height="8" rx="2" transform="rotate(25 545.052 226.671)" fill="white"/>
<rect x="545.052" y="226.671" width="8" height="8" rx="2" transform="rotate(25 545.052 226.671)" stroke="#66BFBF" stroke-width="2" style="mix-blend-mode:darken"/>
<rect x="541.586" y="211.243" width="8" height="8" rx="2" transform="rotate(-45 541.586 211.243)" fill="white"/>
<rect x="541.586" y="211.243" width="8" height="8" rx="2" transform="rotate(-45 541.586 211.243)" stroke="#66BFBF" stroke-width="2" style="mix-blend-mode:darken"/>
<rect x="549.842" y="219.231" width="8" height="8" rx="2" transform="rotate(-10 549.842 219.231)" fill="white"/>
<rect x="549.842" y="219.231" width="8" height="8" rx="2" transform="rotate(-10 549.842 219.231)" stroke="#66BFBF" stroke-width="2" style="mix-blend-mode:darken"/>
<path d="M537 210C546.5 216 555.29 203.156 563 208" stroke="#66BFBF" stroke-width="2" style="mix-blend-mode:darken"/>
<line x1="547.509" y1="244.16" x2="541.509" y2="188.16" stroke="#66BFBF" stroke-width="3" style="mix-blend-mode:darken"/>
<line x1="542.329" y1="189.342" x2="530.329" y2="183.342" stroke="#66BFBF" stroke-width="3" style="mix-blend-mode:darken"/>
<path d="M458 247.623C458 222.623 495.875 222.963 496.5 247.623H458Z" fill="white"/>
<path d="M458 247.623C458 222.623 495.875 222.963 496.5 247.623H458Z" stroke="#66BFBF" stroke-width="3" style="mix-blend-mode:darken"/>
<line x1="477" y1="233" x2="477" y2="229" stroke="#66BFBF" stroke-width="2" style="mix-blend-mode:darken"/>
<path d="M167 36H186.655L197 47.7647V76H167V36Z" fill="white"/>
<path d="M167 36H186.655L197 47.7647V76H167V36Z" stroke="#66BFBF" stroke-width="2" style="mix-blend-mode:darken"/>
<path d="M186 36V46H196" stroke="#66BFBF" stroke-width="2" style="mix-blend-mode:darken"/>
<path d="M175.654 55.672C175.397 55.672 175.177 55.6427 174.994 55.584C174.818 55.5327 174.668 55.4447 174.543 55.32C174.426 55.1953 174.338 55.0303 174.279 54.825C174.228 54.6197 174.202 54.3667 174.202 54.066C174.202 53.8753 174.206 53.7067 174.213 53.56C174.228 53.4133 174.242 53.274 174.257 53.142C174.272 53.01 174.283 52.878 174.29 52.746C174.305 52.6067 174.312 52.4527 174.312 52.284C174.312 52.0933 174.242 51.9173 174.103 51.756C173.964 51.5947 173.718 51.5067 173.366 51.492V50.392C173.718 50.3773 173.964 50.2893 174.103 50.128C174.242 49.9667 174.312 49.7907 174.312 49.6C174.312 49.4313 174.305 49.281 174.29 49.149C174.283 49.0097 174.272 48.874 174.257 48.742C174.242 48.61 174.228 48.4707 174.213 48.324C174.206 48.1773 174.202 48.0087 174.202 47.818C174.202 47.2167 174.316 46.7987 174.543 46.564C174.778 46.3293 175.148 46.212 175.654 46.212H176.424V47.202H176.248C176.043 47.202 175.903 47.246 175.83 47.334C175.757 47.4147 175.72 47.598 175.72 47.884C175.72 48.1627 175.727 48.4377 175.742 48.709C175.757 48.9803 175.764 49.2773 175.764 49.6C175.764 50.04 175.691 50.3553 175.544 50.546C175.397 50.7293 175.177 50.854 174.884 50.92V50.964C175.177 51.03 175.397 51.1583 175.544 51.349C175.691 51.5323 175.764 51.844 175.764 52.284C175.764 52.6067 175.757 52.9037 175.742 53.175C175.727 53.4463 175.72 53.7213 175.72 54C175.72 54.286 175.757 54.4693 175.83 54.55C175.903 54.638 176.043 54.682 176.248 54.682H176.424V55.672H175.654ZM177.572 55.672V54.682H177.748C177.953 54.682 178.093 54.638 178.166 54.55C178.239 54.4693 178.276 54.286 178.276 54C178.276 53.7213 178.269 53.4463 178.254 53.175C178.239 52.9037 178.232 52.6067 178.232 52.284C178.232 51.844 178.305 51.5323 178.452 51.349C178.599 51.1583 178.819 51.03 179.112 50.964V50.92C178.819 50.854 178.599 50.7293 178.452 50.546C178.305 50.3553 178.232 50.04 178.232 49.6C178.232 49.2773 178.239 48.9803 178.254 48.709C178.269 48.4377 178.276 48.1627 178.276 47.884C178.276 47.598 178.239 47.4147 178.166 47.334C178.093 47.246 177.953 47.202 177.748 47.202H177.572V46.212H178.342C178.848 46.212 179.215 46.3293 179.442 46.564C179.677 46.7987 179.794 47.2167 179.794 47.818C179.794 48.0087 179.787 48.1773 179.772 48.324C179.765 48.4707 179.754 48.61 179.739 48.742C179.724 48.874 179.71 49.0097 179.695 49.149C179.688 49.281 179.684 49.4313 179.684 49.6C179.684 49.7907 179.754 49.9667 179.893 50.128C180.032 50.2893 180.278 50.3773 180.63 50.392V51.492C180.278 51.5067 180.032 51.5947 179.893 51.756C179.754 51.9173 179.684 52.0933 179.684 52.284C179.684 52.4527 179.688 52.6067 179.695 52.746C179.71 52.878 179.724 53.01 179.739 53.142C179.754 53.274 179.765 53.4133 179.772 53.56C179.787 53.7067 179.794 53.8753 179.794 54.066C179.794 54.3667 179.765 54.6197 179.706 54.825C179.655 55.0303 179.567 55.1953 179.442 55.32C179.325 55.4447 179.174 55.5327 178.991 55.584C178.808 55.6427 178.591 55.672 178.342 55.672H177.572Z" fill="#66BFBF" style="mix-blend-mode:darken"/>
<rect x="160" y="59" width="33" height="13" fill="white"/>
<rect x="160" y="59" width="33" height="13" stroke="#66BFBF" stroke-width="2" style="mix-blend-mode:darken"/>
<path d="M171.051 69.144C170.385 69.144 169.785 69.006 169.251 68.73C168.717 68.448 168.297 68.058 167.991 67.56C167.691 67.056 167.541 66.486 167.541 65.85C167.541 65.214 167.691 64.647 167.991 64.149C168.297 63.645 168.717 63.255 169.251 62.979C169.785 62.697 170.385 62.556 171.051 62.556C171.663 62.556 172.209 62.664 172.689 62.88C173.169 63.096 173.565 63.408 173.877 63.816L172.536 65.013C172.146 64.521 171.687 64.275 171.159 64.275C170.715 64.275 170.358 64.419 170.088 64.707C169.818 64.989 169.683 65.37 169.683 65.85C169.683 66.33 169.818 66.714 170.088 67.002C170.358 67.284 170.715 67.425 171.159 67.425C171.687 67.425 172.146 67.179 172.536 66.687L173.877 67.884C173.565 68.292 173.169 68.604 172.689 68.82C172.209 69.036 171.663 69.144 171.051 69.144ZM176.752 69.144C176.23 69.144 175.72 69.087 175.222 68.973C174.73 68.853 174.325 68.694 174.007 68.496L174.691 66.948C174.991 67.122 175.327 67.263 175.699 67.371C176.071 67.473 176.428 67.524 176.77 67.524C177.064 67.524 177.274 67.497 177.4 67.443C177.526 67.383 177.589 67.296 177.589 67.182C177.589 67.05 177.505 66.951 177.337 66.885C177.175 66.819 176.905 66.747 176.527 66.669C176.041 66.567 175.636 66.459 175.312 66.345C174.988 66.225 174.706 66.033 174.466 65.769C174.226 65.499 174.106 65.136 174.106 64.68C174.106 64.284 174.217 63.924 174.439 63.6C174.661 63.276 174.991 63.021 175.429 62.835C175.873 62.649 176.41 62.556 177.04 62.556C177.472 62.556 177.895 62.604 178.309 62.7C178.729 62.79 179.098 62.925 179.416 63.105L178.777 64.644C178.159 64.332 177.574 64.176 177.022 64.176C176.476 64.176 176.203 64.308 176.203 64.572C176.203 64.698 176.284 64.794 176.446 64.86C176.608 64.92 176.875 64.986 177.247 65.058C177.727 65.148 178.132 65.253 178.462 65.373C178.792 65.487 179.077 65.676 179.317 65.94C179.563 66.204 179.686 66.564 179.686 67.02C179.686 67.416 179.575 67.776 179.353 68.1C179.131 68.418 178.798 68.673 178.354 68.865C177.916 69.051 177.382 69.144 176.752 69.144ZM182.667 69.144C182.145 69.144 181.635 69.087 181.137 68.973C180.645 68.853 180.24 68.694 179.922 68.496L180.606 66.948C180.906 67.122 181.242 67.263 181.614 67.371C181.986 67.473 182.343 67.524 182.685 67.524C182.979 67.524 183.189 67.497 183.315 67.443C183.441 67.383 183.504 67.296 183.504 67.182C183.504 67.05 183.42 66.951 183.252 66.885C183.09 66.819 182.82 66.747 182.442 66.669C181.956 66.567 181.551 66.459 181.227 66.345C180.903 66.225 180.621 66.033 180.381 65.769C180.141 65.499 180.021 65.136 180.021 64.68C180.021 64.284 180.132 63.924 180.354 63.6C180.576 63.276 180.906 63.021 181.344 62.835C181.788 62.649 182.325 62.556 182.955 62.556C183.387 62.556 183.81 62.604 184.224 62.7C184.644 62.79 185.013 62.925 185.331 63.105L184.692 64.644C184.074 64.332 183.489 64.176 182.937 64.176C182.391 64.176 182.118 64.308 182.118 64.572C182.118 64.698 182.199 64.794 182.361 64.86C182.523 64.92 182.79 64.986 183.162 65.058C183.642 65.148 184.047 65.253 184.377 65.373C184.707 65.487 184.992 65.676 185.232 65.94C185.478 66.204 185.601 66.564 185.601 67.02C185.601 67.416 185.49 67.776 185.268 68.1C185.046 68.418 184.713 68.673 184.269 68.865C183.831 69.051 183.297 69.144 182.667 69.144Z" fill="#66BFBF" style="mix-blend-mode:darken"/>
<path d="M119 36H138.655L149 47.7647V76H119V36Z" fill="white"/>
<path d="M119 36H138.655L149 47.7647V76H119V36Z" stroke="#66BFBF" stroke-width="2" style="mix-blend-mode:darken"/>
<path d="M138 36V46H148" stroke="#66BFBF" stroke-width="2" style="mix-blend-mode:darken"/>
<path d="M126.789 52.966L121.597 50.986V49.71L126.789 47.73V49.27L125.007 49.82L123.511 50.326V50.37L125.007 50.876L126.789 51.426V52.966ZM127.317 55.76L129.253 46.19H130.463L128.527 55.76H127.317ZM131.211 52.966V51.426L132.993 50.876L134.489 50.37V50.326L132.993 49.82L131.211 49.27V47.73L136.403 49.71V50.986L131.211 52.966Z" fill="#66BFBF" style="mix-blend-mode:darken"/>
<rect x="112" y="59" width="33" height="13" fill="white"/>
<rect x="112" y="59" width="33" height="13" stroke="#66BFBF" stroke-width="2" style="mix-blend-mode:darken"/>
<path d="M121.591 62.7V69H119.467V66.678H117.505V69H115.381V62.7H117.505V64.932H119.467V62.7H121.591ZM123.983 64.347H122.138V62.7H127.952V64.347H126.107V69H123.983V64.347ZM134.128 69L134.11 66.129L132.742 68.433H131.806L130.438 66.228V69H128.503V62.7H130.249L132.301 66.057L134.299 62.7H136.045L136.063 69H134.128ZM137.09 62.7H139.214V67.353H142.058V69H137.09V62.7Z" fill="#66BFBF" style="mix-blend-mode:darken"/>
<path d="M215 36H234.655L245 47.7647V76H215V36Z" fill="white"/>
<path d="M215 36H234.655L245 47.7647V76H215V36Z" stroke="#66BFBF" stroke-width="2" style="mix-blend-mode:darken"/>
<path d="M234 36V46H244" stroke="#66BFBF" stroke-width="2" style="mix-blend-mode:darken"/>
<path d="M224.998 50.722C224.676 50.722 224.412 50.612 224.206 50.392C224.001 50.172 223.898 49.9007 223.898 49.578C223.898 49.2553 224.001 48.984 224.206 48.764C224.412 48.544 224.676 48.434 224.998 48.434C225.321 48.434 225.585 48.544 225.79 48.764C225.996 48.984 226.098 49.2553 226.098 49.578C226.098 49.9007 225.996 50.172 225.79 50.392C225.585 50.612 225.321 50.722 224.998 50.722ZM224.118 56.244L223.744 55.254C224.192 55.1073 224.525 54.913 224.745 54.671C224.973 54.429 225.083 54.176 225.075 53.912H224.998C224.712 53.912 224.456 53.824 224.228 53.648C224.008 53.4647 223.898 53.208 223.898 52.878C223.898 52.57 224.008 52.3207 224.228 52.13C224.448 51.9393 224.72 51.844 225.042 51.844C225.453 51.844 225.765 51.9943 225.977 52.295C226.19 52.5957 226.296 53.0173 226.296 53.56C226.296 54.2127 226.113 54.7737 225.746 55.243C225.38 55.7123 224.837 56.046 224.118 56.244Z" fill="#66BFBF" style="mix-blend-mode:darken"/>
<rect x="208" y="59" width="33" height="13" fill="white"/>
<rect x="208" y="59" width="33" height="13" stroke="#66BFBF" stroke-width="2" style="mix-blend-mode:darken"/>
<path d="M221.09 69.132C220.503 69.132 220.016 69.022 219.627 68.802C219.238 68.582 218.912 68.241 218.648 67.779L219.924 66.822C220.049 67.0567 220.192 67.229 220.353 67.339C220.514 67.449 220.672 67.504 220.826 67.504C220.951 67.504 221.061 67.4893 221.156 67.46C221.259 67.4233 221.343 67.361 221.409 67.273C221.475 67.185 221.526 67.0677 221.563 66.921C221.6 66.7743 221.618 66.5873 221.618 66.36V61.85H223.51V66.514C223.51 66.8733 223.459 67.2107 223.356 67.526C223.261 67.8413 223.114 68.12 222.916 68.362C222.718 68.5967 222.465 68.7837 222.157 68.923C221.856 69.0623 221.501 69.132 221.09 69.132ZM227.311 69.132C226.856 69.132 226.387 69.0513 225.903 68.89C225.426 68.7213 224.994 68.461 224.605 68.109L225.683 66.811C225.94 67.0163 226.215 67.185 226.508 67.317C226.809 67.4417 227.091 67.504 227.355 67.504C227.641 67.504 227.846 67.46 227.971 67.372C228.103 67.284 228.169 67.1593 228.169 66.998C228.169 66.91 228.147 66.8367 228.103 66.778C228.059 66.7193 227.993 66.6643 227.905 66.613C227.824 66.5617 227.725 66.514 227.608 66.47C227.491 66.4187 227.355 66.3637 227.201 66.305L226.31 65.931C226.119 65.8577 225.936 65.7623 225.76 65.645C225.584 65.5203 225.43 65.3773 225.298 65.216C225.166 65.0473 225.06 64.8567 224.979 64.644C224.906 64.4313 224.869 64.1967 224.869 63.94C224.869 63.632 224.935 63.346 225.067 63.082C225.199 62.8107 225.382 62.576 225.617 62.378C225.852 62.1727 226.13 62.0113 226.453 61.894C226.783 61.7767 227.142 61.718 227.531 61.718C227.942 61.718 228.356 61.795 228.774 61.949C229.199 62.103 229.577 62.345 229.907 62.675L228.961 63.863C228.719 63.6943 228.484 63.566 228.257 63.478C228.037 63.39 227.795 63.346 227.531 63.346C227.296 63.346 227.113 63.3863 226.981 63.467C226.849 63.5477 226.783 63.6687 226.783 63.83C226.783 63.9987 226.875 64.1307 227.058 64.226C227.249 64.314 227.509 64.4203 227.839 64.545L228.708 64.886C229.155 65.062 229.5 65.3077 229.742 65.623C229.984 65.9383 230.105 66.3453 230.105 66.844C230.105 67.1447 230.043 67.4343 229.918 67.713C229.793 67.9917 229.61 68.2373 229.368 68.45C229.133 68.6553 228.844 68.8203 228.499 68.945C228.154 69.0697 227.758 69.132 227.311 69.132Z" fill="#66BFBF" style="mix-blend-mode:darken"/>
</svg>
